<svg width="41" height="41" viewBox="0 0 41 41" fill="none" xmlns="http://www.w3.org/2000/svg">
<path d="M6.68662 24.4709C6.68662 24.9568 6.92954 25.4426 6.92954 25.9284C6.92954 27.8718 7.17246 31.0297 7.17246 31.0297H8.38704C8.38704 31.0297 8.38704 25.9284 7.65829 23.2563C6.92954 20.3413 6.68662 14.9971 8.38704 11.1104L7.17246 10.6246C7.17246 10.6246 5.71495 13.5396 5.71495 18.1551C5.71495 21.0701 5.95787 22.2847 6.20078 23.4992C5.22911 22.7705 2.55701 20.3413 2.79993 15.24C3.28577 9.41001 8.38704 4.06581 8.38704 4.06581C8.38704 4.06581 17.375 12.5679 9.35872 22.0417L10.3304 22.7705C10.3304 22.7705 13.9742 18.6409 13.9742 14.0254C13.9742 9.41001 12.0308 5.52332 8.38704 2.36539C8.38704 2.36539 2.07118 8.43834 1.58534 15.7259C1.34243 22.5276 6.4437 24.9568 6.4437 24.9568L6.68662 24.4709Z" fill="#C6F7FF"/>
<path d="M19.3183 18.1551C10.3304 20.8272 10.8162 29.5722 11.0591 31.5156C7.9012 34.6735 6.4437 37.5885 6.4437 37.5885L7.41537 38.0743C16.6462 22.7705 30.9784 25.6855 30.9784 25.6855V24.4709C22.2334 23.4993 16.1604 26.9001 12.0308 30.301C11.7879 27.143 13.2454 19.6126 22.4763 18.8838C33.1647 18.6409 38.2659 24.9568 38.2659 24.9568C32.6788 33.9447 26.363 35.1593 22.4763 35.6452C18.3467 36.3739 13.2454 33.4589 13.2454 33.4589L12.7596 34.4306C12.7596 34.4306 17.1321 37.3456 22.7192 36.8597C34.8651 35.4022 39.4805 24.7138 39.4805 24.7138C38.2659 22.2847 29.278 15.7259 19.3183 18.1551Z" fill="#C6F7FF"/>
</svg>
